<svg width="139" height="40" viewBox="0 0 139 40" fill="none" xmlns="http://www.w3.org/2000/svg">
<path d="M63.5768 0.491229C63.3285 0.754387 62.6368 1.7193 62.0516 2.63158C61.4664 3.54386 60.7925 4.61404 60.5442 5C60.2959 5.38596 60.0122 5.98246 59.8881 6.31579C59.7639 6.64912 59.4447 7.29825 59.161 7.75439C58.895 8.22807 58.6644 8.64913 58.6644 8.7193C58.6644 8.80702 58.3984 9.36842 58.0614 10C57.7422 10.6316 57.423 11.4035 57.3521 11.7018C57.2989 12.0175 57.1215 12.3158 56.9797 12.3684C56.8378 12.4211 56.7137 12.5965 56.7137 12.7544C56.7137 12.9298 56.4831 13.614 56.1816 14.2982C55.8979 14.9825 55.6496 15.7193 55.6496 15.9649C55.6496 16.2105 55.4723 16.6491 55.2417 16.9649C54.958 17.386 54.7452 17.5088 54.4437 17.4561C54.2309 17.4035 53.8762 17.3333 53.6457 17.2807C53.4328 17.2281 53.0604 16.9123 52.8121 16.5965C52.5639 16.2632 51.89 15.7018 51.3047 15.3509C50.5776 14.9298 50.0279 14.7193 49.5668 14.7368C49.0525 14.7368 48.8574 14.8421 48.6446 15.1754C48.5028 15.4211 48.3786 15.8772 48.3786 16.1754C48.3786 16.4912 48.485 16.8772 48.6092 17.0175C48.7333 17.1754 49.1057 17.4912 49.4427 17.7193C49.7796 17.9649 50.2762 18.2807 50.5422 18.4211C50.8082 18.5614 51.5353 19.0351 52.1737 19.4737C52.954 20 53.3442 20.386 53.3442 20.614C53.3442 20.807 53.1491 21.2105 52.9185 21.4912C52.688 21.7719 52.3333 22.3684 52.1028 22.807C51.8722 23.2456 51.4998 23.7368 51.2693 23.8947C51.0565 24.0702 50.8614 24.3333 50.8614 24.4737C50.8614 24.614 50.755 24.7719 50.6309 24.8246C50.5244 24.8772 49.9215 25.4912 49.3363 26.1754C48.7333 26.8772 48.2013 27.614 48.1303 27.807C48.0771 28 47.4387 28.7544 46.7116 29.4737C45.9845 30.193 45.2751 30.8947 45.151 31.0175C45.0269 31.1403 44.2111 31.9298 43.3599 32.7719C42.4909 33.6316 41.4268 34.4737 40.9658 34.6842C40.5047 34.9123 40.1145 35.0877 40.0791 35.0877C40.0613 35.0877 39.9194 34.8246 39.7598 34.5088C39.5293 34.0526 39.5116 33.5789 39.618 31.7544C39.7244 29.7544 39.7953 29.4737 40.3096 28.5088C40.6288 27.9298 41.2495 26.9123 41.7106 26.2281C42.2958 25.3509 42.5264 24.8597 42.4909 24.5088C42.4554 24.1228 42.2603 23.8947 41.6751 23.5789L40.9303 23.1579C39.4584 24.5789 38.8909 25.3158 38.7135 25.7018C38.5184 26.0877 38.1638 26.7544 37.88 27.193C37.614 27.6316 37.3835 28.1228 37.3835 28.2807C37.3835 28.4561 36.5145 29.4386 35.4504 30.4737C34.3864 31.5263 33.0209 32.7193 32.4002 33.1579C31.7972 33.5965 30.9637 34.2281 30.5736 34.5614C30.1657 34.9123 29.5272 35.3509 29.1371 35.5614C28.7469 35.7719 27.9666 35.9825 27.3992 36.0351L26.3883 36.1404C25.9627 35.1579 25.8563 34.3684 25.8563 33.5439C25.8563 32.7368 25.9982 31.7368 26.1932 31.0526C26.3706 30.4211 26.6366 29.6667 26.7607 29.386C26.8849 29.1053 27.2573 28.4561 27.5588 27.9825C27.878 27.4912 28.8001 26.4035 29.6159 25.5439C30.9637 24.1228 31.1233 24.0175 31.478 24.193C31.8327 24.3684 31.8859 24.5263 31.8859 25.4737C31.8859 26.0877 31.7972 27.0175 31.6731 27.5439C31.5135 28.3333 31.5312 28.6491 31.744 29.2982L32.01 30.0877C33.8012 30.0877 34.0672 30 34.4573 29.6491C34.7233 29.4035 35.0603 28.9298 35.2022 28.5965C35.344 28.2632 35.5391 27.7895 35.6101 27.5439C35.6987 27.2982 35.6455 26.2632 35.5036 25.1228C35.2731 23.3158 35.2022 23.0877 34.5815 22.2632C34.2268 21.7719 33.677 21.2105 33.3933 21.0351C33.0918 20.8596 32.542 20.6667 32.1519 20.5965C31.6021 20.5088 31.2475 20.5614 30.5913 20.8421C30.077 21.0877 29.6869 21.386 29.5804 21.6667C29.474 21.9123 29.3144 22.1053 29.2258 22.1053C29.1194 22.1053 28.6405 22.4737 28.1617 22.9298C27.6652 23.4035 27.2573 23.8421 27.275 23.9474C27.275 24.0351 26.8317 24.5439 26.2996 25.0351C25.7499 25.5614 25.3243 26.1228 25.3243 26.3158C25.3243 26.5088 25.1292 26.8772 24.8986 27.1404C24.6681 27.4211 24.3134 27.9649 24.1006 28.3684C23.9055 28.7895 23.4267 29.4211 23.0543 29.807C22.6996 30.1754 22.1498 30.7544 21.8661 31.1053C21.5646 31.4561 20.6779 32.4035 19.8621 33.2281C19.0641 34.0526 18.4079 34.807 18.4079 34.9123C18.4079 35 18.1419 35.2105 17.8227 35.3684C17.5212 35.5263 17.1134 35.614 16.936 35.5439C16.67 35.4561 16.6523 35.2807 16.7409 34.1579C16.7941 33.4737 16.9538 32.386 17.0779 31.7544C17.2198 31.1228 17.6099 29.5439 17.9469 28.2456C18.2838 26.9474 18.7272 25.2456 18.94 24.4737C19.135 23.7018 19.5075 22.5263 19.738 21.8421C19.9686 21.1579 20.2523 20.1754 20.3587 19.6491C20.4828 19.1228 20.6779 18.4912 20.8021 18.2456C20.9262 18 21.0681 17.5965 21.139 17.3158C21.1922 17.0526 21.3163 16.8421 21.4228 16.8421C21.5114 16.8421 21.7597 16.386 21.9725 15.8246C22.1676 15.2807 22.6996 14.1754 23.1252 13.3684C23.5508 12.5789 23.9055 11.7895 23.9055 11.614C23.9055 11.4561 23.7459 11.0526 23.5508 10.7368C23.3558 10.4386 23.0543 10.1053 22.877 10.0175C22.7173 9.92983 22.3095 9.89474 21.9902 9.92983C21.5292 9.98246 21.3341 10.1404 20.9439 10.8246C20.6779 11.2982 20.2878 11.9123 20.0572 12.193C19.8267 12.4737 19.2237 13.1754 18.7094 13.7368C18.1951 14.2982 17.4326 14.9649 16.9892 15.2281C16.5459 15.4912 15.7478 15.8772 15.2158 16.0877C14.6838 16.3158 14.0986 16.4912 13.9212 16.4912C13.7616 16.4912 13.4779 16.4211 13.3005 16.3333C13.07 16.2105 12.9636 15.8421 12.8572 14.7193C12.7685 13.9123 12.7153 12.5088 12.7153 11.614C12.733 10.4035 12.6621 9.92982 12.467 9.73684C12.3251 9.59649 11.935 9.47368 11.6158 9.47368C11.3143 9.47368 10.8709 9.59649 10.6404 9.73684C10.4276 9.87719 9.94877 10.6491 9.55862 11.4386C9.18621 12.2456 8.67192 13.3333 8.42364 13.8596C8.1931 14.386 7.71427 15.4912 7.37732 16.3158C7.04037 17.1404 6.61476 18.193 6.43742 18.6842C6.27781 19.1579 6.08273 19.7544 6.04726 20C5.99406 20.2456 5.79899 20.8772 5.58618 21.4035C5.37337 21.9298 5.14282 22.4386 5.07189 22.5439C4.98322 22.6316 4.93002 22.8421 4.93002 22.9825C4.91228 23.1228 4.71721 23.6316 4.48666 24.1228C4.23839 24.5965 4.04331 25.193 4.04331 25.4386C4.04331 25.6842 3.8837 26.193 3.70636 26.5789C3.52902 26.9649 3.20981 27.7193 2.997 28.2456C2.76645 28.7719 2.51818 29.5965 2.44724 30.0877C2.35857 30.5614 1.96842 31.9123 1.57827 33.0702C1.20585 34.2281 0.709294 35.7719 0.496485 36.4912C0.283675 37.2105 0.0708665 38.1228 0.0176642 38.5088C-0.0355382 38.9298 0.0353972 39.3684 0.17727 39.614C0.301409 39.8246 0.567421 40 0.762497 40C0.957572 40 1.50733 39.807 2.00389 39.5789C2.69552 39.2456 3.03247 38.9123 3.52902 38.1228C3.8837 37.5614 4.25612 36.807 4.38026 36.4386C4.48666 36.0877 4.64627 35.7544 4.75267 35.7018C4.84135 35.6491 4.93002 35.4561 4.93002 35.2632C4.93002 35.0702 5.24923 34.0702 5.63938 33.0175C6.02953 31.9825 6.41968 31.0175 6.50835 30.8772C6.57929 30.7368 6.80983 30.0351 6.98718 29.3333C7.18225 28.6316 7.35959 28.0702 7.41279 28.0702C7.466 28.0702 7.59014 27.7895 7.71428 27.4211C7.82068 27.0526 8.08669 26.1579 8.31723 25.4386C8.54778 24.7193 8.90246 23.807 9.09754 23.4211C9.31034 23.0351 9.7537 21.9649 10.0729 21.0526C10.4099 20.1404 10.7645 19.3333 10.8532 19.2807C10.9596 19.2105 11.2788 19.3158 11.5803 19.4912C11.8818 19.6667 12.4315 19.8246 12.8217 19.8246C13.2119 19.8246 13.7971 19.7193 14.1163 19.5965C14.4355 19.4912 14.6838 19.3333 14.6838 19.2456C14.6838 19.1754 15.1094 18.9123 15.606 18.6667C16.1202 18.4211 16.7055 18.0526 16.9005 17.8772C17.0956 17.7018 17.4503 17.5439 17.6808 17.5088C18.0178 17.4737 18.1419 17.5614 18.2661 17.9298C18.3902 18.3333 18.2483 18.7368 17.4503 20.2982C16.9183 21.3509 16.3331 22.7368 16.138 23.4211C15.9429 24.1053 15.6592 25.193 15.5173 25.8772C15.3577 26.5614 15.1449 27.5789 15.0385 28.1579C14.9143 28.7368 14.6306 30 14.3823 30.9649C14.134 31.9474 13.868 33.6842 13.7793 34.9123C13.6907 36.1228 13.6552 37.386 13.7084 37.7193C13.7616 38.0526 13.9744 38.4912 14.1695 38.6842C14.4532 38.9474 14.8434 39.0526 15.8188 39.0877C16.9183 39.1403 17.1488 39.1053 17.6276 38.7368C17.9469 38.5263 19.0641 37.4211 20.1282 36.3158C21.1922 35.2105 22.1676 34.1228 22.274 33.8947C22.3981 33.6842 22.5577 33.5088 22.6641 33.5088C22.7528 33.5088 22.8415 33.7719 22.8592 34.0702C22.8592 34.386 23.0011 35 23.1607 35.4386C23.338 35.8772 23.7282 36.7193 24.0474 37.3158C24.4198 38.0526 24.7922 38.5088 25.1469 38.6842C25.4307 38.8246 26.1046 38.9474 26.6011 38.9474C27.3814 38.9474 27.878 38.7895 29.5272 37.9825C30.6268 37.4561 31.5667 36.9474 31.6199 36.8421C31.6731 36.7368 31.8682 36.614 32.0632 36.5263C32.2583 36.4561 33.2869 35.5614 34.3687 34.5088C35.4327 33.4737 36.3904 32.6667 36.4968 32.7193C36.6032 32.7719 36.6564 33.3684 36.6209 34.0877C36.6032 34.8596 36.6741 35.4912 36.7805 35.6316C36.9046 35.7719 37.1174 36.2281 37.2593 36.6667C37.4012 37.1053 37.7204 37.5965 37.9332 37.7719C38.1638 37.9474 38.6781 38.1579 39.0682 38.2456C39.7244 38.386 39.9017 38.3333 41.3736 37.5789C42.7037 36.8947 43.3067 36.4211 45.0269 34.7368C46.1441 33.6316 47.1904 32.5263 47.35 32.2807C47.5096 32.0351 48.2367 31.1228 48.9816 30.2632C49.7087 29.386 50.5777 28.386 50.8969 28.0175C51.2161 27.6491 51.5353 27.3509 51.6062 27.3684C51.6949 27.3684 51.7304 28.5789 51.6949 30.0351C51.6594 32.2281 51.7126 32.8772 51.9609 33.5439C52.1383 34.0175 52.422 34.6491 52.5816 34.9649C52.7589 35.2632 53.1136 35.807 53.3619 36.1404C53.6279 36.4737 54.1067 36.8596 54.4259 37C54.7984 37.1579 55.3127 37.2105 55.7383 37.1579C56.1284 37.1053 56.9619 36.807 57.6004 36.5088C58.2388 36.2105 59.1078 35.7018 59.5511 35.386C59.9945 35.0526 60.828 34.4561 61.4309 34.0175C62.0339 33.5965 63.0093 32.8947 63.6122 32.4561C64.2152 32.0175 65.2615 31.1754 65.9531 30.5614C66.627 29.9649 67.2832 29.4737 67.3896 29.4737C67.5137 29.4737 67.7797 29.6491 67.9926 29.8772C68.2054 30.0877 68.4182 30.5439 68.4714 30.8772C68.5423 31.2105 68.7197 31.6316 68.897 31.7895C69.0743 31.9474 69.7128 32.1579 70.3157 32.2632C71.2379 32.4211 71.5926 32.4035 72.2665 32.1754C72.7453 32.0175 73.4015 31.7719 73.7384 31.614C74.0754 31.4386 74.7493 31.0877 75.2458 30.807C75.7246 30.5263 76.4517 30.0877 76.8419 29.8421C77.232 29.5965 77.569 29.3333 77.5867 29.2456C77.6222 29.1754 77.7463 29.1228 77.8527 29.1228C77.9769 29.1228 78.6685 28.7018 79.3601 28.1579C80.0695 27.6316 80.7611 27.193 80.8675 27.193C80.9917 27.193 81.1513 27.4912 81.2222 27.8421C81.3109 28.3509 81.506 28.6316 82.0203 28.9825C82.3927 29.2456 82.9779 29.4912 83.3148 29.5614C83.6518 29.614 84.4853 29.5614 85.1769 29.4211C85.8508 29.2807 87.0567 28.8772 87.837 28.5263C88.6173 28.1579 89.7346 27.6316 90.3198 27.3333C90.905 27.0175 91.845 26.5439 92.3947 26.2456C92.9622 25.9474 93.4765 25.7544 93.5474 25.8246C93.6361 25.9123 93.512 26.1404 93.2992 26.3509C93.0863 26.5789 92.6607 27 92.377 27.2807C92.0932 27.5614 91.4371 28.1579 90.9405 28.5965C90.444 29.0351 89.9119 29.6491 89.7701 29.9474C89.5573 30.4211 89.5573 30.6491 89.7346 31.2632C89.8765 31.6667 90.1602 32.1053 90.4085 32.2632C90.71 32.4737 91.1533 32.5263 92.0046 32.4737C92.643 32.4561 93.441 32.3158 93.778 32.193C94.1149 32.0702 94.842 31.7719 95.3741 31.5439C95.9061 31.2982 96.6332 31 96.9701 30.8596C97.3071 30.7368 98.2647 30.2807 99.0982 29.8772C99.9317 29.4561 100.783 29.1228 100.996 29.1228C101.226 29.1228 101.404 29.0702 101.404 28.9825C101.404 28.9123 101.67 28.7368 101.971 28.5789C102.29 28.4211 103.514 27.8421 104.684 27.2807C105.855 26.7368 107.043 26.1754 107.345 26.0526C107.628 25.9298 108.302 25.6316 108.799 25.4211C109.313 25.193 109.792 25.0526 109.863 25.1228C109.952 25.193 110.218 25.0526 110.484 24.8246C110.767 24.5789 111.086 24.386 111.193 24.386C111.317 24.386 112.062 24.1053 112.842 23.7544C113.622 23.4211 114.42 23.0702 114.616 23C114.811 22.9123 115.272 22.7193 115.626 22.5614C115.999 22.4035 116.424 22.2807 116.566 22.2807C116.708 22.2807 117.098 22.1228 117.4 21.9298C117.719 21.7368 118.145 21.5789 118.34 21.5789C118.553 21.5789 118.783 21.5088 118.872 21.4211C118.978 21.3333 120.131 20.8597 121.443 20.3684C122.756 19.8772 123.908 19.4737 124.015 19.4737C124.103 19.4737 125.221 19.1403 126.497 18.7544C127.757 18.3509 128.909 18.0877 129.016 18.1403C129.14 18.193 129.246 18.3684 129.246 18.5088C129.246 18.6491 128.821 18.9825 128.306 19.2281C127.81 19.4912 127.349 19.7544 127.295 19.8246C127.242 19.8772 126.604 20.3158 125.877 20.7895C125.15 21.2456 124.263 21.8772 123.926 22.193C123.589 22.5088 122.543 23.2105 121.621 23.7719C120.698 24.3158 119.581 24.9649 119.138 25.2105C118.694 25.4386 117.896 25.9298 117.364 26.3158C116.832 26.6842 116.3 27 116.212 27C116.105 27 115.91 27.1404 115.768 27.2982C115.626 27.4561 115.219 27.7368 114.882 27.8947C114.545 28.0702 113.906 28.386 113.463 28.5965C113.02 28.807 112.47 29.0526 112.221 29.1754C111.973 29.2807 111.654 29.4737 111.512 29.5789C111.37 29.7018 110.767 30.0526 110.182 30.3684C109.597 30.6842 108.817 31.1228 108.444 31.3509C107.859 31.7018 107.77 31.8597 107.699 32.5789C107.646 33.0526 107.664 33.6842 107.752 34.0175C107.823 34.3509 108.089 34.7719 108.373 34.9825C108.799 35.2982 109.1 35.3509 110.324 35.3158C111.122 35.2982 112.168 35.193 112.665 35.0877C113.144 35 114.19 34.7895 114.97 34.6491C115.751 34.5088 116.832 34.2632 117.364 34.1228C117.896 33.9649 118.819 33.7368 119.404 33.5965C119.989 33.4386 120.627 33.2632 120.823 33.1754C121.018 33.0877 121.408 32.9649 121.709 32.9298C121.993 32.8772 122.951 32.6316 123.837 32.386C124.724 32.1228 125.788 31.807 126.231 31.6842C126.675 31.5439 127.508 31.3158 128.094 31.1754C128.679 31.0175 129.831 30.8246 130.665 30.7193C131.498 30.614 133.006 30.4386 134.034 30.3509C135.063 30.2456 136.588 30.0526 137.439 29.9123C138.433 29.7368 139 29.5614 139 29.4211C139 29.3158 138.663 29.0526 138.255 28.8421C137.83 28.6491 136.996 28.4561 136.34 28.4211C135.701 28.3684 134.141 28.3509 132.882 28.3509C131.516 28.3509 129.885 28.4912 128.892 28.6667C127.969 28.8246 127.065 29.0351 126.888 29.1404C126.728 29.2281 126.373 29.2982 126.09 29.2982C125.824 29.2982 125.451 29.4035 125.256 29.5439C125.061 29.6667 124.582 29.8246 124.192 29.8947C123.802 29.9649 122.915 30.2281 122.241 30.4561C121.55 30.6842 120.486 30.9649 119.847 31.0702C119.209 31.1754 118.091 31.4211 117.364 31.614C116.637 31.807 115.591 32.0351 115.059 32.0877C114.527 32.1579 113.977 32.2807 113.853 32.3333C113.747 32.4035 113.321 32.4211 112.931 32.3684L112.221 32.2807C112.842 31.7719 113.569 31.3158 114.261 30.9649C114.935 30.5965 115.591 30.2105 115.68 30.1053C115.786 30 116.141 29.807 116.478 29.6667C116.815 29.5263 117.648 29.0351 118.34 28.5965C119.014 28.1404 119.705 27.7193 119.847 27.6667C119.989 27.5965 120.592 27.2281 121.177 26.8421C121.762 26.4561 122.578 25.9298 123.004 25.6491C123.429 25.386 124.174 24.8772 124.653 24.5088C125.132 24.1579 125.611 23.8596 125.699 23.8596C125.788 23.8596 126.214 23.614 126.622 23.3333C127.047 23.0351 127.579 22.6667 127.827 22.4912C128.076 22.3333 128.36 22.1228 128.466 22.0175C128.572 21.9298 129.104 21.5614 129.672 21.2281C130.222 20.8947 131.321 20 132.084 19.2456C133.112 18.2632 133.502 17.7719 133.502 17.4561C133.502 17.2105 133.414 16.8421 133.307 16.614C133.201 16.4035 132.917 16.0702 132.651 15.8947C132.208 15.5614 132.03 15.5614 129.69 15.7368C127.42 15.8947 127.047 15.9825 125.38 16.6491C124.387 17.0351 123.234 17.4211 122.809 17.4737C122.401 17.5263 121.869 17.7193 121.621 17.8772C121.372 18.0526 120.929 18.2281 120.645 18.2807C120.344 18.3333 119.156 18.7193 117.985 19.1228C116.815 19.5263 115.733 19.9649 115.591 20.0877C115.449 20.2105 115.041 20.4035 114.704 20.5088C114.367 20.5965 113.445 20.9123 112.665 21.193C111.885 21.4737 110.608 22.0351 109.827 22.4211C109.047 22.807 108.214 23.1754 107.965 23.2456C107.717 23.3158 107.185 23.5088 106.759 23.7018C106.351 23.8772 105.961 24.0351 105.873 24.0351C105.802 24.0175 105.624 24.1404 105.483 24.2982C105.341 24.4561 105.075 24.5789 104.897 24.5614C104.738 24.5614 104.383 24.6667 104.099 24.807C103.833 24.9474 102.947 25.3509 102.113 25.7193C101.28 26.0702 100.411 26.5263 100.162 26.7018C99.914 26.8772 99.0805 27.2807 98.3002 27.5614C97.5199 27.8597 96.6864 28.2632 96.4381 28.4386C96.1898 28.6316 95.8706 28.7895 95.7287 28.7895C95.5869 28.7895 95.3563 28.6667 95.2322 28.5088C95.0548 28.2807 95.2144 28.0526 96.2253 26.9649C96.8814 26.2807 97.7682 25.2456 98.176 24.6842C98.5839 24.1404 98.9741 23.6842 99.045 23.6842C99.1337 23.6842 99.3288 23.3684 99.4884 22.9825C99.6657 22.5965 99.8076 22.1404 99.8076 21.9649C99.8076 21.807 99.6302 21.4912 99.4174 21.2982C99.1869 21.0877 98.8145 20.8246 98.5662 20.7018C98.2115 20.5263 97.9632 20.5263 97.3425 20.7193C96.9169 20.8597 96.5445 21.0175 96.509 21.0877C96.4736 21.1754 96.2785 21.2281 96.0834 21.2281C95.8883 21.2281 95.4627 21.4561 95.1435 21.7368C94.842 22.0175 94.1681 22.4035 93.6893 22.5965C93.1928 22.7895 92.4124 23.2105 91.9336 23.5263C91.4725 23.8597 90.9937 24.1754 90.8696 24.2456C90.7632 24.3158 90.2311 24.5789 89.6991 24.8246C89.1671 25.0877 88.4045 25.4035 88.0144 25.5439C87.6242 25.7018 87.0213 25.8772 86.6843 25.9649C86.3474 26.0526 85.7267 26.2281 85.3011 26.3509C84.8045 26.5029 84.4912 26.5205 84.3612 26.4035C84.237 26.2807 84.2902 25.9825 84.574 25.4386C84.7868 25 85.6557 24 86.5247 23.1579C87.7484 22 88.1031 21.5614 88.1031 21.1754C88.1031 20.8947 87.908 20.4912 87.6065 20.1754C87.2696 19.7895 86.9503 19.6316 86.4715 19.5965C85.8863 19.5614 85.7089 19.6667 84.8754 20.5263C84.3612 21.0526 83.6163 21.7719 83.2262 22.1053C82.836 22.4561 82.1799 22.9825 81.7542 23.2982C81.3464 23.614 80.9562 23.8596 80.8675 23.8596C80.7966 23.8772 80.2646 24.2807 79.6793 24.7895C79.0941 25.2982 78.3316 25.807 77.9946 25.9298C77.6577 26.0351 77.3207 26.2807 77.232 26.4912C77.1611 26.7018 76.9483 26.8421 76.7 26.8421C76.4872 26.8421 75.9906 27.1228 75.6005 27.4561C75.2103 27.807 74.7315 28.1228 74.5364 28.1754C74.3414 28.2456 74.1463 28.3509 74.0931 28.4386C74.0399 28.5088 73.4901 28.7544 72.8517 28.9825C72.2133 29.2105 71.5217 29.3684 71.2911 29.3509C70.9719 29.2982 70.901 29.193 70.901 28.6316C70.901 28.2807 71.0606 27.5088 71.2556 26.9298C71.5216 26.1404 71.8586 25.5965 72.6921 24.7368C73.2773 24.1053 74.4123 22.8772 75.2103 22C76.0084 21.1228 76.8242 20.1404 77.0192 19.8246C77.2143 19.5088 77.5158 19 77.6754 18.7018C77.8527 18.4035 77.9946 18 77.9946 17.807C77.9946 17.614 77.7463 17.193 77.4626 16.8772C77.0192 16.4211 76.7887 16.3158 76.168 16.3158C75.4764 16.3158 75.3345 16.4035 74.235 17.4912C73.5965 18.1579 72.834 18.9649 72.5502 19.2982C72.2842 19.6316 71.9473 20.0175 71.8231 20.1754C71.6813 20.3158 71.167 20.9825 70.6527 21.6667C70.1561 22.3509 69.6773 23.1404 69.5886 23.4211C69.5177 23.7018 69.1985 24.2982 68.8793 24.7368C68.56 25.1754 67.7088 25.9649 66.9817 26.5263C66.2546 27.0702 65.3856 27.7895 65.0487 28.1404C64.7117 28.4912 64.3393 28.7719 64.2507 28.7719C64.162 28.7544 63.7186 29.0702 63.2753 29.4737C62.8319 29.8596 62.424 30.1754 62.3354 30.1754C62.2644 30.1754 61.7147 30.6316 61.094 31.2105C60.491 31.7719 59.7107 32.3684 59.3738 32.5439C59.0368 32.7193 58.3984 33.0877 57.955 33.386C57.5117 33.6842 56.9087 33.9825 56.625 34.0526C56.2171 34.1579 55.9511 34.1053 55.5077 33.8596C55.2063 33.6667 54.8338 33.2982 54.692 33.0175C54.5501 32.7544 54.355 31.9474 54.2486 31.2281C54.0535 30 54.0713 29.7544 54.5678 27.5439C54.8693 26.2456 55.3127 24.5088 55.5609 23.6842C55.8092 22.8596 56.0043 22.1754 56.0043 22.1404C56.0043 22.1228 56.1639 22.1053 56.359 22.1053C56.554 22.1053 56.8555 22.2632 57.0151 22.4561C57.1925 22.6491 57.4585 22.807 57.6004 22.807C57.7422 22.807 58.3984 23 59.0368 23.2105C59.693 23.4211 60.2959 23.6491 60.3669 23.7368C60.4556 23.807 60.828 23.8596 61.1827 23.8596C61.6319 23.8596 62.0339 23.7135 62.3886 23.4211C62.6723 23.1754 62.9206 22.8596 62.9206 22.7193C62.9206 22.5789 62.8319 22.4561 62.7433 22.4561C62.6546 22.4561 62.2999 22.2105 61.9807 21.9123C61.6792 21.614 60.8989 21.0877 60.2605 20.7719C59.6221 20.4386 59.0191 20.1754 58.9304 20.1754C58.8418 20.1754 58.4871 19.9298 58.1679 19.614C57.689 19.1403 57.6004 18.9474 57.7068 18.5965C57.76 18.3509 58.3097 17.2982 58.895 16.2281C59.4802 15.1579 60.0831 14.1053 60.2428 13.8596C60.3846 13.614 61.2891 11.8772 62.2644 10C63.2221 8.12281 64.0733 6.50877 64.162 6.40351C64.2329 6.29825 64.5167 5.66667 64.7827 5C65.0487 4.31579 65.4566 3.45614 65.6871 3.07018C65.8999 2.68421 66.1127 2.08772 66.1482 1.77193C66.2014 1.22807 66.1127 1.08772 65.4388 0.578948C65.031 0.263158 64.5521 0 64.3748 0C64.1975 0 63.8428 0.210526 63.5768 0.473684V0.491229Z" fill="url(#paint0_linear_7_4)"/>
<defs>
<linearGradient id="paint0_linear_7_4" x1="0" y1="20" x2="139" y2="20" gradientUnits="userSpaceOnUse">
<stop stop-color="#C1C1C1"/>
<stop offset="1" stop-color="#4F4F4F"/>
</linearGradient>
</defs>
</svg>
