<svg width="2808" height="504" viewBox="0 0 2808 504" fill="none" xmlns="http://www.w3.org/2000/svg">
<g filter="url(#filter0_d_5_2)">
<path d="M102.4 398V394L124.4 389.2V212.8H100V208.4L168.4 194.8V257.6L171.6 260.4C177.733 247.333 185.067 235.6 193.6 225.2C202.133 214.8 211.6 206.667 222 200.8C232.667 194.933 244 192 256 192C265.6 192 274 193.467 281.2 196.4C288.4 199.333 294.4 203.733 299.2 209.6C304 215.2 307.467 222.267 309.6 230.8C312 239.333 313.2 249.2 313.2 260.4V389.2L336 394V398H246.4V394L269.2 389.2V256.4C269.2 240.4 266.4 228.4 260.8 220.4C255.467 212.4 247.333 208.4 236.4 208.4C230 208.4 223.467 210.667 216.8 215.2C210.4 219.467 204.133 225.2 198 232.4C191.867 239.6 186.267 247.333 181.2 255.6C176.4 263.867 172.133 271.867 168.4 279.6V389.2L191.2 394V398H102.4ZM391.2 398V394L414 389.2V256.4C414 240.4 411.2 228.4 405.6 220.4C400 212.4 391.867 208.4 381.2 208.4C374.533 208.4 367.867 210.667 361.2 215.2C354.8 219.467 348.533 225.2 342.4 232.4C336.533 239.6 331.067 247.333 326 255.6C320.933 263.867 316.667 271.867 313.2 279.6V257.6L316.4 260.4C322.533 247.333 329.733 235.6 338 225.2C346.533 214.8 356.133 206.667 366.8 200.8C377.467 194.933 388.667 192 400.4 192C411.067 192 420 193.733 427.2 197.2C434.667 200.4 440.533 205.067 444.8 211.2C449.333 217.333 452.667 224.667 454.8 233.2C456.933 241.733 458 251.467 458 262.4V389.2L482.4 394V398H391.2ZM619.384 192C634.851 192 648.051 193.867 658.984 197.6C670.184 201.067 679.384 206.533 686.584 214C693.784 221.467 698.984 230.933 702.184 242.4C705.384 253.6 706.984 266.933 706.984 282.4V384C706.984 388 707.784 390.933 709.384 392.8C711.251 394.667 713.651 395.6 716.584 395.6C719.784 395.6 723.384 394.667 727.384 392.8C731.651 390.933 735.784 388.533 739.784 385.6V390C736.584 392.933 732.718 395.467 728.184 397.6C723.918 399.733 719.384 401.333 714.584 402.4C709.784 403.467 705.118 404 700.584 404C688.851 404 679.651 400.933 672.984 394.8C666.318 388.4 662.984 378.133 662.984 364C662.984 358.667 662.984 354.8 662.984 352.4C662.984 349.733 662.984 347.733 662.984 346.4C662.984 345.067 662.984 343.6 662.984 342L659.784 339.6C654.718 349.733 648.584 358.8 641.384 366.8C634.451 374.8 626.584 381.6 617.784 387.2C609.251 392.533 600.451 396.667 591.384 399.6C582.318 402.533 573.251 404 564.184 404C554.318 404 545.384 402.267 537.384 398.8C529.384 395.6 522.984 390.8 518.184 384.4C513.384 377.733 510.984 369.6 510.984 360C510.984 337.333 523.918 320.133 549.784 308.4C575.651 296.4 613.384 290.4 662.984 290.4C662.984 267.733 661.251 249.867 657.784 236.8C654.318 223.467 648.318 213.867 639.784 208C631.251 202.133 619.518 199.2 604.584 199.2C594.718 199.2 585.918 200.133 578.184 202C570.718 203.6 564.851 205.6 560.584 208C556.584 210.4 554.584 212.533 554.584 214.4C554.584 215.733 555.784 217.2 558.184 218.8C560.851 220.133 565.518 222.133 572.184 224.8C584.451 229.6 590.584 236.4 590.584 245.2C590.584 253.2 587.118 259.333 580.184 263.6C573.251 267.6 564.851 269.6 554.984 269.6C545.384 269.6 537.118 267.467 530.184 263.2C523.518 258.933 520.184 252.8 520.184 244.8C520.184 238.4 522.851 232.133 528.184 226C533.784 219.6 541.118 213.867 550.184 208.8C559.518 203.733 570.051 199.733 581.784 196.8C593.784 193.6 606.318 192 619.384 192ZM662.984 295.2C637.651 295.2 616.718 298 600.184 303.6C583.651 308.933 571.384 316.267 563.384 325.6C555.384 334.933 551.384 345.333 551.384 356.8C551.384 363.733 552.718 369.467 555.384 374C558.318 378.267 562.184 381.467 566.984 383.6C571.784 385.733 577.251 386.8 583.384 386.8C590.051 386.8 597.118 385.6 604.584 383.2C612.318 380.533 619.918 376.533 627.384 371.2C634.851 365.867 641.651 359.2 647.784 351.2C654.184 342.933 659.251 333.2 662.984 322V295.2ZM821.681 404C807.548 404 797.281 399.867 790.881 391.6C784.748 383.067 781.681 370.133 781.681 352.8V206H753.281V202L782.081 198L820.081 132.4H825.681V195.2L868.481 202V206H825.681V366.8C825.681 376.133 827.015 382.8 829.681 386.8C832.348 390.8 835.948 392.8 840.481 392.8C845.281 392.8 849.815 391.2 854.081 388C858.615 384.533 863.148 380.267 867.681 375.2L869.281 380C866.615 382.933 863.415 385.867 859.681 388.8C856.215 391.467 852.348 394 848.081 396.4C844.081 398.8 839.815 400.667 835.281 402C831.015 403.333 826.481 404 821.681 404ZM997.481 192C1018.81 192 1036.41 196.267 1050.28 204.8C1064.41 213.333 1074.95 224.933 1081.88 239.6C1089.08 254 1092.68 270.533 1092.68 289.2H934.681V285.2L1051.88 280.8C1051.88 263.2 1049.88 248.267 1045.88 236C1041.88 223.467 1035.88 213.867 1027.88 207.2C1019.88 200.533 1009.75 197.2 997.481 197.2C984.948 197.2 974.015 200.8 964.681 208C955.348 215.2 948.148 226 943.081 240.4C938.015 254.8 935.481 272.667 935.481 294C935.481 306.533 937.215 318.533 940.681 330C944.148 341.2 949.081 351.333 955.481 360.4C961.881 369.2 969.748 376.133 979.081 381.2C988.415 386.267 999.081 388.8 1011.08 388.8C1019.08 388.8 1026.95 387.733 1034.68 385.6C1042.41 383.467 1049.61 380.4 1056.28 376.4C1062.95 372.133 1068.95 367.067 1074.28 361.2C1079.88 355.067 1084.68 348 1088.68 340L1092.68 344C1086.81 355.733 1080.15 365.467 1072.68 373.2C1065.21 380.933 1057.08 387.067 1048.28 391.6C1039.48 396.133 1030.41 399.333 1021.08 401.2C1011.75 403.067 1002.28 404 992.681 404C976.681 404 962.415 401.2 949.881 395.6C937.348 390 926.681 382.533 917.881 373.2C909.081 363.6 902.281 352.533 897.481 340C892.948 327.467 890.681 314.133 890.681 300C890.681 283.733 893.348 269.067 898.681 256C904.015 242.667 911.348 231.2 920.681 221.6C930.281 212 941.615 204.667 954.681 199.6C967.748 194.533 982.015 192 997.481 192ZM1200.6 404C1181.67 404 1167.4 398.133 1157.8 386.4C1148.2 374.667 1143.4 356.933 1143.4 333.2V210H1118.6V205.6L1187.4 192V339.6C1187.4 355.333 1190.2 367.333 1195.8 375.6C1201.4 383.6 1209.53 387.6 1220.2 387.6C1229 387.6 1237.93 384.533 1247 378.4C1256.07 372 1264.6 363.467 1272.6 352.8C1280.6 341.867 1287.27 329.6 1292.6 316V210H1268.2V205.6L1336.6 192V386H1361V390.4L1292.6 404V338L1289.4 335.6C1277.67 358.267 1264.33 375.333 1249.4 386.8C1234.47 398.267 1218.2 404 1200.6 404ZM1476.7 404C1464.7 404 1453.37 402.933 1442.7 400.8C1432.3 398.667 1422.97 395.467 1414.7 391.2C1406.7 386.933 1400.43 381.867 1395.9 376C1391.37 370.133 1389.1 363.6 1389.1 356.4C1389.1 351.067 1390.57 346.667 1393.5 343.2C1396.7 339.467 1400.7 336.667 1405.5 334.8C1410.3 332.933 1415.37 332 1420.7 332C1426.03 332 1431.1 332.933 1435.9 334.8C1440.7 336.4 1444.57 338.8 1447.5 342C1450.43 345.2 1451.9 349.067 1451.9 353.6C1451.9 357.333 1450.97 360.667 1449.1 363.6C1447.5 366.533 1444.97 369.333 1441.5 372C1437.23 374.933 1434.3 377.333 1432.7 379.2C1431.1 381.067 1430.3 383.067 1430.3 385.2C1430.3 387.333 1432.17 389.467 1435.9 391.6C1439.63 393.733 1444.83 395.6 1451.5 397.2C1458.43 398.533 1466.17 399.2 1474.7 399.2C1486.7 399.2 1497.23 397.733 1506.3 394.8C1515.37 391.6 1522.43 387.067 1527.5 381.2C1532.83 375.333 1535.5 367.867 1535.5 358.8C1535.5 351.867 1533.37 345.6 1529.1 340C1524.83 334.4 1517.77 329.067 1507.9 324C1498.03 318.933 1484.57 313.733 1467.5 308.4C1448.57 302 1433.5 295.6 1422.3 289.2C1411.37 282.8 1403.5 276 1398.7 268.8C1394.17 261.6 1391.9 253.733 1391.9 245.2C1391.9 228.933 1399.9 216 1415.9 206.4C1432.17 196.8 1454.03 192 1481.5 192C1496.43 192 1510.17 194 1522.7 198C1535.23 202 1545.37 207.6 1553.1 214.8C1560.83 221.733 1564.7 230 1564.7 239.6C1564.7 244.667 1563.23 248.933 1560.3 252.4C1557.37 255.6 1553.5 258 1548.7 259.6C1544.17 261.2 1539.37 262 1534.3 262C1530.3 262 1526.3 261.6 1522.3 260.8C1518.57 259.733 1515.1 258.4 1511.9 256.8C1508.97 254.933 1506.57 252.667 1504.7 250C1502.83 247.067 1501.9 243.733 1501.9 240C1501.9 232.8 1505.9 226.533 1513.9 221.2C1518.17 218.533 1521.1 216.267 1522.7 214.4C1524.3 212.533 1525.1 210.8 1525.1 209.2C1525.1 207.867 1524.03 206.4 1521.9 204.8C1519.77 203.2 1516.7 201.867 1512.7 200.8C1508.97 199.467 1504.7 198.533 1499.9 198C1495.1 197.2 1489.9 196.8 1484.3 196.8C1472.3 196.8 1461.63 198.133 1452.3 200.8C1442.97 203.467 1435.63 207.467 1430.3 212.8C1424.97 217.867 1422.3 224.133 1422.3 231.6C1422.3 238.267 1424.83 244.667 1429.9 250.8C1434.97 256.667 1442.43 262.133 1452.3 267.2C1462.17 272 1474.3 276.8 1488.7 281.6C1508.7 288.533 1524.43 295.067 1535.9 301.2C1547.63 307.333 1556.03 313.733 1561.1 320.4C1566.17 326.8 1568.7 334.267 1568.7 342.8C1568.7 352.667 1566.3 361.467 1561.5 369.2C1556.7 376.933 1550.17 383.333 1541.9 388.4C1533.63 393.467 1523.9 397.333 1512.7 400C1501.77 402.667 1489.77 404 1476.7 404ZM1601.55 398V394L1626.35 390V206H1601.55V202L1626.35 198C1625.55 187.867 1625.15 178 1625.15 168.4C1625.42 158.533 1626.22 150.133 1627.55 143.2C1629.42 133.333 1633.02 125.2 1638.35 118.8C1643.95 112.4 1651.29 107.733 1660.35 104.8C1669.69 101.6 1680.75 100 1693.55 100C1702.89 100 1711.29 100.933 1718.75 102.8C1726.49 104.4 1733.29 106.933 1739.15 110.4C1745.02 113.867 1749.55 118 1752.75 122.8C1755.95 127.6 1757.55 133.067 1757.55 139.2C1757.55 144.8 1755.95 149.467 1752.75 153.2C1749.82 156.667 1745.69 159.333 1740.35 161.2C1735.02 163.067 1729.15 164 1722.75 164C1712.89 164 1704.49 162 1697.55 158C1690.62 153.733 1687.15 147.733 1687.15 140C1687.15 135.467 1688.22 131.6 1690.35 128.4C1692.75 125.2 1695.29 122.4 1697.95 120C1700.89 117.6 1703.42 115.467 1705.55 113.6C1707.69 111.733 1708.75 109.867 1708.75 108C1708.75 106.667 1707.69 105.733 1705.55 105.2C1703.42 104.667 1699.69 104.4 1694.35 104.4C1683.42 104.4 1675.55 107.2 1670.75 112.8C1665.95 118.133 1663.55 126.267 1663.55 137.2C1663.55 142.267 1663.82 148.267 1664.35 155.2C1665.15 161.867 1665.95 168.933 1666.75 176.4C1667.82 183.6 1669.02 190.8 1670.35 198L1716.35 200.4V205.2H1670.35V390L1697.15 394V398H1601.55ZM1780.76 354.8C1785.83 354.8 1790.36 355.733 1794.36 357.6C1798.63 359.467 1802.1 362.267 1804.76 366C1807.43 369.733 1808.76 374.267 1808.76 379.6C1808.76 384.667 1807.43 389.067 1804.76 392.8C1802.1 396.533 1798.63 399.333 1794.36 401.2C1790.36 403.067 1785.83 404 1780.76 404C1775.96 404 1771.3 403.067 1766.76 401.2C1762.5 399.333 1759.03 396.533 1756.36 392.8C1753.7 389.067 1752.36 384.667 1752.36 379.6C1752.36 374.267 1753.7 369.733 1756.36 366C1759.03 362.267 1762.5 359.467 1766.76 357.6C1771.3 355.733 1775.96 354.8 1780.76 354.8ZM1944.63 404C1924.89 404 1907.29 399.6 1891.83 390.8C1876.63 382 1864.63 369.733 1855.83 354C1847.29 338.267 1843.03 320.267 1843.03 300C1843.03 283.733 1845.69 269.067 1851.03 256C1856.63 242.667 1864.36 231.2 1874.23 221.6C1884.36 212 1896.36 204.667 1910.23 199.6C1924.36 194.533 1940.09 192 1957.43 192C1967.83 192 1977.96 193.2 1987.83 195.6C1997.69 197.733 2006.63 201.067 2014.63 205.6C2022.63 209.867 2028.89 215.2 2033.43 221.6C2037.96 227.733 2040.23 234.8 2040.23 242.8C2040.23 248.4 2038.63 253.067 2035.43 256.8C2032.49 260.267 2028.36 262.933 2023.03 264.8C2017.69 266.667 2011.83 267.6 2005.43 267.6C1995.83 267.6 1987.43 265.6 1980.23 261.6C1973.29 257.6 1969.83 251.6 1969.83 243.6C1969.83 238.267 1971.56 233.6 1975.03 229.6C1978.76 225.6 1983.96 222.667 1990.63 220.8C2000.76 217.333 2005.83 214.267 2005.83 211.6C2005.83 209.467 2004.09 207.333 2000.63 205.2C1997.16 202.8 1992.23 200.933 1985.83 199.6C1979.43 198 1971.69 197.2 1962.63 197.2C1951.43 197.2 1941.16 199.733 1931.83 204.8C1922.76 209.6 1914.89 216.4 1908.23 225.2C1901.56 233.733 1896.36 243.733 1892.63 255.2C1889.16 266.667 1887.43 279.067 1887.43 292.4C1887.43 307.067 1889.29 320.4 1893.03 332.4C1896.76 344.133 1901.96 354.267 1908.63 362.8C1915.29 371.067 1923.43 377.467 1933.03 382C1942.63 386.533 1953.29 388.8 1965.03 388.8C1975.96 388.8 1986.36 386.933 1996.23 383.2C2006.09 379.467 2015.03 374 2023.03 366.8C2031.03 359.6 2037.56 350.667 2042.63 340L2046.63 344C2040.49 356 2033.56 366 2025.83 374C2018.36 381.733 2010.23 387.867 2001.43 392.4C1992.63 396.667 1983.43 399.6 1973.83 401.2C1964.23 403.067 1954.49 404 1944.63 404ZM2187.26 192C2203.79 192 2218.46 194.533 2231.26 199.6C2244.33 204.667 2255.26 212 2264.06 221.6C2272.86 230.933 2279.53 242.267 2284.06 255.6C2288.59 268.667 2290.86 283.333 2290.86 299.6C2290.86 314.8 2288.59 328.8 2284.06 341.6C2279.53 354.133 2272.86 365.2 2264.06 374.8C2255.26 384.133 2244.46 391.333 2231.66 396.4C2218.86 401.467 2204.06 404 2187.26 404C2170.19 404 2155.13 401.467 2142.06 396.4C2129.26 391.333 2118.46 384.133 2109.66 374.8C2100.86 365.2 2094.19 354.133 2089.66 341.6C2085.39 328.8 2083.26 314.8 2083.26 299.6C2083.26 283.333 2085.66 268.667 2090.46 255.6C2095.26 242.267 2102.06 230.933 2110.86 221.6C2119.93 212 2130.86 204.667 2143.66 199.6C2156.46 194.533 2170.99 192 2187.26 192ZM2187.26 197.2C2174.19 197.2 2163.26 201.6 2154.46 210.4C2145.93 219.2 2139.39 231.333 2134.86 246.8C2130.59 262.267 2128.46 279.867 2128.46 299.6C2128.46 313.733 2129.53 326.8 2131.66 338.8C2134.06 350.8 2137.66 361.333 2142.46 370.4C2147.53 379.467 2153.79 386.533 2161.26 391.6C2168.73 396.4 2177.39 398.8 2187.26 398.8C2196.86 398.8 2205.26 396.4 2212.46 391.6C2219.93 386.533 2226.19 379.6 2231.26 370.8C2236.33 361.733 2240.06 351.2 2242.46 339.2C2244.86 326.933 2246.06 313.733 2246.06 299.6C2246.06 284.667 2244.86 271.067 2242.46 258.8C2240.06 246.267 2236.46 235.467 2231.66 226.4C2226.86 217.067 2220.73 209.867 2213.26 204.8C2205.79 199.733 2197.13 197.2 2187.26 197.2ZM2327.4 398V394L2349.4 389.2V212.8H2325V208.4L2393.4 194.8V257.6L2396.6 260.4C2402.73 247.333 2410.07 235.6 2418.6 225.2C2427.13 214.8 2436.6 206.667 2447 200.8C2457.67 194.933 2469 192 2481 192C2490.6 192 2499 193.467 2506.2 196.4C2513.4 199.333 2519.4 203.733 2524.2 209.6C2529 215.2 2532.47 222.267 2534.6 230.8C2537 239.333 2538.2 249.2 2538.2 260.4V389.2L2561 394V398H2471.4V394L2494.2 389.2V256.4C2494.2 240.4 2491.4 228.4 2485.8 220.4C2480.47 212.4 2472.33 208.4 2461.4 208.4C2455 208.4 2448.47 210.667 2441.8 215.2C2435.4 219.467 2429.13 225.2 2423 232.4C2416.87 239.6 2411.27 247.333 2406.2 255.6C2401.4 263.867 2397.13 271.867 2393.4 279.6V389.2L2416.2 394V398H2327.4ZM2616.2 398V394L2639 389.2V256.4C2639 240.4 2636.2 228.4 2630.6 220.4C2625 212.4 2616.87 208.4 2606.2 208.4C2599.53 208.4 2592.87 210.667 2586.2 215.2C2579.8 219.467 2573.53 225.2 2567.4 232.4C2561.53 239.6 2556.07 247.333 2551 255.6C2545.93 263.867 2541.67 271.867 2538.2 279.6V257.6L2541.4 260.4C2547.53 247.333 2554.73 235.6 2563 225.2C2571.53 214.8 2581.13 206.667 2591.8 200.8C2602.47 194.933 2613.67 192 2625.4 192C2636.07 192 2645 193.733 2652.2 197.2C2659.67 200.4 2665.53 205.067 2669.8 211.2C2674.33 217.333 2677.67 224.667 2679.8 233.2C2681.93 241.733 2683 251.467 2683 262.4V389.2L2707.4 394V398H2616.2Z" fill="#DECCA4"/>
</g>
<defs>
<filter id="filter0_d_5_2" x="0" y="0" width="2807.4" height="504" filterUnits="userSpaceOnUse" color-interpolation-filters="sRGB">
<feFlood flood-opacity="0" result="BackgroundImageFix"/>
<feColorMatrix in="SourceAlpha" type="matrix" values="0 0 0 0 0 0 0 0 0 0 0 0 0 0 0 0 0 0 127 0" result="hardAlpha"/>
<feOffset/>
<feGaussianBlur stdDeviation="50"/>
<feComposite in2="hardAlpha" operator="out"/>
<feColorMatrix type="matrix" values="0 0 0 0 0 0 0 0 0 0 0 0 0 0 0 0 0 0 0.15 0"/>
<feBlend mode="normal" in2="BackgroundImageFix" result="effect1_dropShadow_5_2"/>
<feBlend mode="normal" in="SourceGraphic" in2="effect1_dropShadow_5_2" result="shape"/>
</filter>
</defs>
</svg>
